<svg id="Capa_1" enable-background="new 0 0 512 512" height="512" viewBox="0 0 512 512" width="512" xmlns="http://www.w3.org/2000/svg"><g><g><path d="m308.953 215.548-106.02-.2c-16.742-.032-30.297-13.612-30.297-30.354v-94.549c0-46.102 37.419-83.451 83.522-83.365 45.98.087 83.208 37.385 83.208 83.365v94.748c-.001 16.787-13.626 30.387-30.413 30.355z" fill="#aa6a51"/><g><g><g><path d="m179.675 384.749v-120.643c0-8.786-4.67-16.909-12.262-21.33l-117.934-68.671c-12.368-7.202-16.19-23.289-8.382-35.284 7.21-11.076 21.789-14.638 33.294-8.133l138.732 78.436c7.56 3.06 15.814-2.503 15.814-10.659v-14.615h54.124v14.615c0 8.155 8.254 13.719 15.814 10.659l138.732-78.436c11.505-6.505 26.084-2.943 33.294 8.133 7.808 11.994 3.986 28.082-8.382 35.284l-117.933 68.671c-7.592 4.421-12.262 12.544-12.262 21.33v120.643z" fill="#98d5b9"/><path d="m298.876 209.125c-7.56 3.06-15.814-2.503-15.814-10.659v-14.615h-54.124v14.615c0 8.156-8.254 13.719-15.814 10.659l-1.914-1.082c6.638 18.314 24.184 31.4 44.79 31.4s38.152-13.086 44.79-31.4z" fill="#ffcebf"/></g><g fill="#ffcebf"><path d="m421.751 139.654 30.1 40.664 10.669-6.212c12.368-7.202 16.19-23.289 8.382-35.284-7.21-11.076-21.79-14.638-33.294-8.133z"/><path d="m93.842 141.685-19.451-10.997c-11.504-6.505-26.084-2.943-33.294 8.133-7.808 11.994-3.986 28.082 8.382 35.284l14.231 8.287z"/></g></g><g fill="#918291"><path d="m96.226 502v-88.924h319.547v88.924c0 5.523-4.477 10-10 10h-299.547c-5.523 0-10-4.477-10-10z"/><path d="m433.791 443.496h-355.582c-8.284 0-15-6.716-15-15v-43.955c0-8.284 6.716-15 15-15h355.583c8.284 0 15 6.716 15 15v43.955c-.001 8.285-6.716 15-15.001 15z"/></g><g><path d="m413.833 38.336c-1.338 0-2.692-.357-3.916-1.108-3.53-2.167-4.636-6.785-2.47-10.315l14.32-23.334c2.167-3.531 6.786-4.636 10.315-2.47 3.53 2.167 4.636 6.785 2.47 10.315l-14.32 23.334c-1.416 2.307-3.878 3.578-6.399 3.578z" fill="#fe646f"/></g><g><path d="m504.506 144.785c-2.521 0-4.983-1.271-6.399-3.578l-14.32-23.334c-2.166-3.53-1.061-8.148 2.47-10.315 3.528-2.167 8.147-1.062 10.315 2.47l14.32 23.334c2.166 3.53 1.061 8.148-2.47 10.315-1.224.75-2.578 1.108-3.916 1.108z" fill="#fd9468"/></g><g><path d="m7.494 144.785c-1.338 0-2.692-.357-3.916-1.108-3.53-2.167-4.636-6.785-2.47-10.315l14.32-23.334c2.168-3.53 6.785-4.636 10.315-2.47 3.53 2.167 4.636 6.785 2.47 10.315l-14.32 23.334c-1.415 2.306-3.877 3.578-6.399 3.578z" fill="#fd9468"/></g><g><path d="m98.167 38.337c-2.521 0-4.983-1.271-6.399-3.578l-14.32-23.334c-2.166-3.53-1.061-8.148 2.47-10.315 3.528-2.167 8.147-1.062 10.315 2.47l14.32 23.334c2.166 3.53 1.061 8.148-2.47 10.315-1.224.75-2.578 1.108-3.916 1.108z" fill="#fe646f"/></g><g><g><path d="m83.833 309.785c-1.338 0-2.692-.357-3.916-1.108-3.53-2.167-4.636-6.785-2.47-10.315l14.32-23.334c2.168-3.53 6.785-4.636 10.315-2.47 3.53 2.167 4.636 6.785 2.47 10.315l-14.32 23.334c-1.416 2.306-3.878 3.578-6.399 3.578z" fill="#fe646f"/></g><g><path d="m421.768 306.206-14.32-23.334c-2.166-3.53-1.061-8.148 2.47-10.315 3.529-2.167 8.147-1.062 10.315 2.47l14.32 23.334c2.166 3.53 1.061 8.148-2.47 10.315-3.485 2.14-8.13 1.092-10.315-2.47z" fill="#fe646f"/></g></g><g fill="#fee45a"><circle cx="381.055" cy="84.675" r="7.5"/><circle cx="486.291" cy="287.027" r="7.5"/><circle cx="29.541" cy="315.861" r="7.5"/><circle cx="91" cy="80.613" r="7.5"/></g></g><path d="m283.062 198.466v-14.615h-23.998-6.129-23.998v11.557l2.867 2.866c6.483 6.483 15.278 10.125 24.447 10.125h19.496c3.696 0 7.329-.602 10.776-1.733-2.102-2.05-3.461-4.906-3.461-8.2z" fill="#ffb09e"/><g><path d="m308.992 94.18v41.443 5.761c0 11.585-4.603 22.697-12.796 30.889l-6.001 6c-6.484 6.483-15.278 10.125-24.447 10.125h-19.496c-9.169 0-17.964-3.642-24.448-10.125l-6.001-6c-8.193-8.192-12.796-19.303-12.796-30.889v-5.761-41.443c3.131 1.345 25.198 10.395 46.998-1.217 12.57-6.695 18.923-16.996 21.446-21.732 1.441 3.198 5.511 11.09 14.564 16.874 9.832 6.28 19.546 6.246 22.977 6.075z" fill="#ffcebf"/></g></g><path d="m96.226 462.421v-18.925h319.548v48.925z" fill="#7a6d79"/></g></svg>